<svg version="1.2" xmlns="http://www.w3.org/2000/svg" viewBox="0 0 146 34" width="146" height="34"><style>.a{fill:#fff}.b{fill:#091931}.c{fill:#873eff}</style><path fill-rule="evenodd" class="a" d="m40.4 24.8c-0.2 0.3-0.6 0.6-0.9 0.7-0.2 0.9-0.6 1.9-1 2.5-0.3 0.4-0.5 0.4-0.8 0.2-0.2-0.2-0.5-0.6-0.4-1.3 0.3-2 2.3-5.5 3.3-7 0.1-0.1 0.2-0.1 0.2 0 0.1 0.3 0.1 0.7-0.3 1.4-0.4 0.6-1 1.6-1.4 2.5 0.3 0.2 0.4 0.5 0.4 1.1q0 0.1 0 0.3c0.3-0.2 0.6-0.6 0.8-1q0.1-0.5 0.4-1c0.3-0.7 0.9-1.2 1.4-1.2 0.3 0 0.4 0 0.6 0.3 0.2 0.3 0.5 0.3 0.4 1q0 0 0 0.1c0.3 0 0.5-0.2 0.7-0.5-0.6-0.3 0.2-1.5 0.6-1.5 0.3 0 0.1 0.6 0 1.1q0.4-0.1 0.9-0.4 0.2-0.1 0.3 0c0.2 0.1 0.4 0.6 0.1 0.9-0.4 0.4-0.8 1.1-1 1.5-0.2 0.5-0.1 0.9 0.2 0.9 0.4 0 0.8-0.6 1.1-1.2 0.1-0.1 0.1-0.1 0.2-0.1 0 0.2 0 0.4-0.1 0.6-0.2 0.6-0.7 1-1.2 1-0.7-0.1-1-0.7-0.8-1.4 0.2-0.6 0.8-1.3 1.2-1.7-0.4 0.2-0.8 0.3-1.1 0.3-0.3 0.4-0.6 0.7-1.1 0.8-0.2 0.7-0.8 1.6-1.4 1.9-0.3 0.1-0.8 0.1-1.1-0.4q-0.2-0.2-0.2-0.4zm2.1-1.3c-0.4-0.2-0.6-0.5-0.6-0.8-0.2 0.2-0.5 0.5-0.7 0.8-0.4 0.7-0.5 1.5-0.2 1.7 0.2 0.2 0.7-0.1 1.2-0.9q0.2-0.4 0.3-0.8zm-4.1 1.7c-0.5 1.2-0.8 2.4-0.6 2.6 0.2 0.3 0.9-1 1.2-2.2q-0.4 0-0.6-0.4zm4.2-1.9q0.1-0.4 0-0.7c0-0.3-0.2-0.2-0.2 0.1-0.1 0.2 0 0.4 0.2 0.6zm-3.6 2q0.1-0.3 0.1-0.6c0-0.3-0.1-0.6-0.2-0.6 0 0-0.1 0.5-0.1 0.7q0 0.5 0.2 0.5zm32.4 0c-0.2 0.2-0.5 0.4-0.8 0.4-0.8 0-1.1-0.7-0.8-1.4 0.4-0.7 1.2-1.7 1-1.8 0 0-0.4 0.1-0.9 0.7-0.8 0.7-1.2 1.6-1.6 2.4q0 0.2-0.2 0.1c-0.1-0.2-0.2-0.5 0-1.2 0.3-0.7 1.3-1.9 1.1-2-0.1-0.1-0.5 0.2-1.1 0.8-0.5 0.6-1 1.4-1.3 2.3 0 0-0.1 0.1-0.2 0q-0.3-0.2-0.1-0.9c0.1-0.3 0.3-0.8 0.6-1.3q-0.4 0.3-0.8 0.2c-0.2 0.8-0.8 1.8-1.4 2-0.3 0.1-0.8 0.1-1.2-0.4-0.3-0.5-0.2-1.3 0.2-2 0.3-0.6 0.9-1.2 1.4-1.2 0.3 0 0.4 0.1 0.6 0.3 0.2 0.3 0.5 0.3 0.4 1q0 0.1 0 0.1c0.6 0 1.2-0.6 1.6-1.4 0.1-0.1 0.2-0.1 0.2 0 0.2 0.3 0.1 0.6 0 1 0.4-0.5 1-1 1.4-1 0.3 0 0.4 0.5 0.3 0.9 0.4-0.4 1-0.9 1.3-0.8 0.3 0 0.4 0.5 0.2 0.9-0.1 0.4-0.6 1-0.8 1.5-0.2 0.5-0.1 0.9 0.2 0.9 0.3 0 0.6-0.3 0.8-0.8 0.2-0.5 0.9-1.8 1.4-2.6q0.1-0.2 0.2 0c0.1 0.2 0.1 0.6 0 0.9 0.4-0.4 1-0.9 1.4-0.9 0.3 0 0.4 0.4 0.3 0.8 0.4-0.4 1-0.8 1.3-0.8 0.3 0 0.4 0.5 0.2 1-0.1 0.4-0.6 1-0.8 1.4-0.2 0.6-0.1 1 0.2 1 0.4 0 0.7-0.6 1.1-1.1q0-0.5 0.2-0.9c0.6-1.2 1.5-1.7 1.9-1.4 0.3 0.1 0.4 0.3 0.6 0.5 0.1 0.2 0 0.7-0.3 1.2-0.5 0.5-1.1 0.7-1.7 0.2-0.3 0.9 0 1.4 0.4 1.5 1 0 2-1.4 2.5-2.6-0.7-0.2 0.1-1.4 0.5-1.5 0.3 0 0.2 0.6 0 1.2q0.4-0.1 1-0.5c0.1 0 0.1-0.1 0.2 0 0.2 0.2 0.4 0.6 0.1 0.9-0.4 0.5-0.8 1.1-1 1.6-0.1 0.5 0 0.9 0.2 0.9 0.4 0 0.8-0.5 1.1-1.1q0-0.4 0.2-0.9c0.6-1.2 1.5-1.6 1.9-1.4 0.3 0.2 0.4 0.3 0.5 0.5 0.2 0.4-0.1 0.9-0.3 1.4-0.1 0.1-0.1 0.1-0.2 0-0.2-0.1-0.3-0.3-0.2-0.7 0.1-0.4 0.3-0.8 0.2-0.9-0.1-0.1-0.8 0.5-1.2 1.3-0.5 1-0.3 1.8 0.2 1.8 0.7 0 1.3-0.6 1.6-1.1q0.1-0.4 0.3-0.9c0.6-1.2 1.5-1.7 1.9-1.4 0.3 0.1 0.4 0.3 0.6 0.5 0.1 0.2 0.1 0.7-0.3 1.2-0.5 0.5-1.1 0.8-1.7 0.3-0.3 0.8 0 1.4 0.4 1.4 0.8 0 1.4-0.7 1.8-1.3q0.1-0.1 0.1 0c0.1 0.1 0.1 0.3-0.1 0.6-0.4 0.5-1.1 0.9-1.7 0.9-0.7 0.1-1.1-0.3-1.2-0.8-0.4 0.5-1 0.8-1.6 0.8-0.6 0-1-0.2-1.2-0.7-0.2 0.4-0.7 0.8-1.1 0.7-0.7 0-1-0.6-0.7-1.3 0.2-0.6 0.7-1.3 1.1-1.7-0.4 0.2-0.8 0.3-1.1 0.3-0.7 1.6-1.7 2.7-2.7 2.7-0.7 0-1-0.3-1.2-0.7-0.3 0.4-0.8 0.7-1.2 0.7-0.8 0-1.1-0.6-0.8-1.3 0.4-0.8 1.2-1.8 1-1.8 0 0-0.3 0.1-0.9 0.6-0.8 0.8-1.2 1.7-1.6 2.5q0 0.2-0.2 0c-0.1-0.1-0.2-0.4 0-1.1 0.3-0.7 1.3-2 1.1-2-0.1-0.1-0.6 0.2-1.1 0.8-0.5 0.6-1 1.4-1.3 2.2-0.1 0.1-0.1 0.2-0.2 0.1q-0.1-0.1-0.2-0.3zm14.7-1.5c0.4 0.2 0.8-0.1 1.1-0.5 0.2-0.4 0.4-0.8 0.3-0.9-0.2-0.2-0.9 0.4-1.3 1.2q-0.1 0.1-0.1 0.2zm-8.5-0.1c0.4 0.3 0.8-0.1 1.1-0.4 0.2-0.4 0.4-0.8 0.3-0.9-0.2-0.2-0.9 0.4-1.3 1.2q-0.1 0.1-0.1 0.1zm-11.9-0.2c-0.3-0.2-0.6-0.5-0.6-0.8-0.2 0.2-0.5 0.5-0.7 0.8-0.4 0.7-0.5 1.5-0.2 1.7 0.2 0.2 0.7-0.1 1.2-0.9q0.2-0.4 0.3-0.8zm0.1-0.2q0.1-0.4 0-0.6c0-0.3-0.2-0.3-0.2 0-0.1 0.2 0 0.4 0.2 0.6zm-14.4-1.5c-0.8 1.1-1.8 2.6-2.6 3.8q-0.2 0.2-0.3 0c-0.3-0.2-0.3-0.6-0.2-1.2 0.3-1.4 1-3.4 1.5-4.3q0.1-0.2 0.2 0c0.1 0.2 0.2 0.6-0.1 1.2-0.3 0.9-0.7 2-1.1 3.3 0.8-1.4 2.2-3.3 3.1-4.4 0.1 0 0.2-0.1 0.2 0 0.2 0.3 0.3 0.5 0 1.2-0.3 0.8-0.6 1.9-1 3.3 0.9-1.5 2.7-3.8 3.4-4.7q0.2-0.2 0.3 0c0 0.4-0.1 0.7-0.6 1.3-0.6 0.9-1.9 2.6-3 4.2-0.1 0.2-0.2 0.2-0.3 0.1-0.3-0.3-0.4-0.6-0.2-1.3 0.1-0.6 0.4-1.6 0.7-2.5zm8 1.8q-0.1 0.1-0.3 0.1c-0.2 0.7-0.7 1.6-1.4 1.9-0.3 0.1-0.7 0.1-1.1-0.4-0.3-0.4-0.3-1.1 0-1.7q-0.3 0.2-0.6 0.2c-0.2 0.7-0.7 1.6-1.4 1.9-0.3 0.1-0.7 0.1-1.1-0.4-0.4-0.5-0.3-1.3 0.1-2 0.4-0.7 0.9-1.2 1.5-1.2 0.2 0 0.4 0 0.6 0.3 0.2 0.3 0.4 0.3 0.4 1q0 0 0 0.1c0.3 0 0.7-0.3 0.9-0.7 0.4-0.4 0.8-0.7 1.2-0.7 0.2 0 0.4 0 0.6 0.3 0.2 0.3 0.4 0.3 0.4 1q0 0.1 0 0.2 0.1 0 0.1 0c0.1 0 0.1 0 0.1 0.1zm-3.8-1c-0.1-0.2-0.3-0.2-0.3 0.1 0 0.2 0 0.5 0.2 0.6q0.1-0.4 0.1-0.7zm2.9 0.9q-0.1 0-0.1-0.1c-0.2-0.1-0.4-0.4-0.4-0.7-0.3 0.2-0.5 0.5-0.7 0.8-0.4 0.7-0.5 1.5-0.3 1.7 0.2 0.2 0.8-0.1 1.2-0.9q0.2-0.4 0.3-0.8zm-3.7-0.8c-0.2 0.2-0.4 0.5-0.6 0.8-0.4 0.7-0.6 1.5-0.3 1.7 0.2 0.2 0.8-0.1 1.2-0.9q0.2-0.4 0.3-0.8c-0.3-0.1-0.6-0.5-0.6-0.8zm3.8 0.6q0.1-0.4 0.1-0.7c-0.1-0.2-0.2-0.2-0.3 0.1 0 0.2 0.1 0.5 0.2 0.6zm4.2 0.3c0.1-0.1 0.2-0.1 0.2 0.1 0.2 0.6-0.3 1.2-0.7 1.5-0.7 0.5-1.4 0.5-1.9 0.2-0.4-0.2-0.7-0.8-0.7-1.5-0.1-1.9 1.5-3.6 2.5-3.9 0.5-0.2 0.9-0.3 1.2 0 0.2 0.2 0.4 0.4 0.5 0.6q0.1 0.4-0.1 0.8c-0.1 0.3-0.3 0.7-0.4 0.9 0 0.1-0.1 0.2-0.2 0.1-0.2-0.2-0.3-0.4-0.2-0.9 0.2-0.5 0.5-1 0.3-1.2-0.3-0.3-1.6 0.5-2.4 1.8-0.8 1.3-0.7 2.7-0.3 3 0.6 0.5 1.5-0.1 2.2-1.5z"/><path fill-rule="evenodd" class="a" d="m44.2 5.5v6.9q0 1.1-0.4 1.9-0.5 0.9-1.3 1.4-0.9 0.5-2.1 0.5-1.3 0-2.2-0.5-0.8-0.5-1.2-1.3-0.5-0.9-0.5-2v-6.9h2.5v6q0 1.4 0.2 2.1 0.3 0.7 1.2 0.7 0.8 0 1.1-0.7 0.3-0.7 0.3-2.1v-6zm0.9 0h2.6l1.5 3.3 1.6-3.3h2.6l-2.8 4.8 3 5.6h-2.6l-1.8-4-1.8 4h-2.6l2.9-5.5zm12 0v10.4h-2.5v-10.4zm0.1 4.8l2.8-4.8h2.6l-2.9 4.7 3.2 5.7h-2.9zm14.1 0.3q0 1.7-0.4 2.9-0.5 1.2-1.4 1.9-0.9 0.7-2.3 0.7-1.3 0-2.3-0.7-0.9-0.6-1.3-1.8-0.5-1.3-0.5-3 0-1.6 0.5-2.8 0.4-1.3 1.3-1.9 1-0.7 2.3-0.7 1.4 0 2.3 0.6 0.9 0.7 1.4 1.9 0.4 1.3 0.4 2.9zm-2.5 0q0-1.9-0.3-2.8-0.4-0.8-1.3-0.8-0.9 0-1.2 0.9-0.4 0.8-0.4 2.7 0 2 0.4 2.8 0.4 0.9 1.2 0.9 0.9 0 1.3-0.9 0.3-0.9 0.3-2.8zm11.4 0q0 1.3-0.3 2.2-0.2 0.9-0.7 1.5-0.5 0.6-1.1 0.9-0.7 0.4-1.4 0.5-0.7 0.2-1.5 0.2h-2.8v-10.5h2.6q1 0 1.9 0.3 1 0.2 1.7 0.7 0.7 0.6 1.2 1.6 0.4 1 0.4 2.6zm-2.5 0q0-1.1-0.2-1.7-0.2-0.7-0.5-1-0.3-0.4-0.7-0.5-0.4-0.2-0.9-0.2h-0.5v6.9h0.5q0.5 0 0.9-0.2 0.4-0.2 0.7-0.5 0.3-0.4 0.5-1.1 0.2-0.7 0.2-1.7zm6.7-3.4v2.5h3.5v1.7h-3.5v2.7h4.3v1.8h-6.8v-10.5h6.8l-0.3 1.8zm14.5 6.4h-3l-0.5 2.3h-2.6l3.2-10.5h2.9l3.2 10.5h-2.6zm-2.7-1.8h2.3l-1.1-4.6zm14.1-1.3q0 1.3-0.3 2.2-0.3 0.9-0.7 1.5-0.5 0.6-1.1 1-0.7 0.3-1.4 0.5-0.7 0.1-1.5 0.1h-2.8v-10.4h2.6q1 0 1.9 0.2 1 0.2 1.7 0.8 0.7 0.5 1.1 1.5 0.5 1 0.5 2.6zm-2.5 0q0-1-0.2-1.7-0.2-0.6-0.5-1-0.3-0.4-0.7-0.5-0.4-0.1-0.9-0.1h-0.5v6.8h0.5q0.5 0 0.9-0.1 0.4-0.2 0.7-0.6 0.3-0.4 0.5-1.1 0.2-0.6 0.2-1.7zm11.4 0q0 1.3-0.3 2.2-0.3 0.9-0.7 1.5-0.5 0.6-1.1 1-0.7 0.3-1.4 0.5-0.7 0.1-1.5 0.1h-2.8v-10.4h2.6q1 0 1.9 0.2 1 0.2 1.7 0.8 0.7 0.5 1.1 1.5 0.5 1 0.5 2.6zm-2.5 0q0-1-0.2-1.7-0.2-0.6-0.5-1-0.3-0.4-0.7-0.5-0.4-0.1-0.9-0.1h-0.5v6.8h0.5q0.5 0 0.9-0.1 0.4-0.2 0.7-0.6 0.3-0.4 0.5-1.1 0.2-0.6 0.2-1.7zm11.4 0.1q0 1.6-0.4 2.9-0.5 1.2-1.4 1.9-0.9 0.6-2.3 0.6-1.3 0-2.3-0.6-0.9-0.7-1.3-1.9-0.5-1.2-0.5-2.9 0-1.7 0.5-2.9 0.4-1.2 1.3-1.9 1-0.7 2.3-0.7 1.4 0 2.3 0.7 0.9 0.6 1.4 1.9 0.4 1.2 0.4 2.9zm-2.5 0q0-1.9-0.3-2.8-0.4-0.9-1.3-0.9-0.9 0-1.2 0.9-0.4 0.9-0.4 2.8 0 1.9 0.4 2.8 0.4 0.8 1.2 0.8 0.9 0 1.3-0.8 0.3-0.9 0.3-2.8zm8 5.2l-2.7-8.4q0.1 0.4 0.1 0.8 0.1 0.5 0.2 1.1 0 0.6 0.1 1.2 0 0.7 0 1.4v3.9h-2.1v-10.4h3.1l2.6 8.3q-0.1-0.5-0.2-1.1-0.1-0.7-0.1-1.5-0.1-0.8-0.1-1.7v-4h2.1v10.4zm12.1-3q0 0.9-0.5 1.7-0.5 0.7-1.4 1.1-0.9 0.4-2.3 0.4-1.4 0-2.4-0.4-1-0.4-1.6-1.1l1.2-1.3q0.6 0.5 1.3 0.7 0.7 0.3 1.5 0.3 0.5 0 0.9-0.1 0.4-0.2 0.6-0.5 0.2-0.3 0.2-0.7 0-0.3-0.2-0.6-0.1-0.3-0.5-0.5-0.4-0.2-1.2-0.4-1.2-0.4-1.9-0.8-0.7-0.5-1.1-1.1-0.3-0.6-0.3-1.4 0-0.9 0.5-1.6 0.6-0.7 1.4-1 0.9-0.4 2-0.4 1.2 0 2.1 0.4 0.9 0.3 1.6 1l-1.2 1.3q-0.5-0.4-1.1-0.7-0.6-0.2-1.2-0.2-0.5 0-0.8 0.1-0.4 0.2-0.6 0.4-0.2 0.2-0.2 0.6 0 0.3 0.2 0.5 0.2 0.2 0.7 0.4 0.4 0.2 1.2 0.5 1 0.3 1.7 0.7 0.7 0.4 1.1 1.1 0.3 0.6 0.3 1.6z"/><path fill-rule="evenodd" class="a" d="m15.7 32.4c-8.5 0-15.4-7-15.4-15.6 0-8.7 6.9-15.7 15.4-15.7 8.6 0 15.5 7 15.5 15.7 0 8.6-6.9 15.6-15.5 15.6z"/><path class="b" d="m12.5 10.4v8.3q0 1.3-0.5 2.3-0.5 1-1.5 1.6-1 0.6-2.5 0.6-1.6 0-2.6-0.6-1-0.6-1.5-1.6-0.5-1-0.5-2.3v-8.3h2.9v7.2q0 1.7 0.3 2.5 0.3 0.9 1.4 0.9 1 0 1.3-0.9 0.3-0.8 0.3-2.5v-7.2z"/><path class="b" d="m24.3 20.2h-3.6l-0.6 2.7h-3.1l3.8-12.5h3.5l3.8 12.5h-3.1zm-3.2-2.2h2.7l-1.4-5.5z"/><path fill-rule="evenodd" class="c" d="m18.6 13.2l-3.3 7.2h2.5l2.7-5.8 0.6-1.5-6.4-3q-0.1 0-0.3 0zm-1.6 10.2l-4.1-3.1 3.2-7.2h-2.5l-2.6 5.8-0.6 1.5 6.4 3.1q0.2-0.1 0.2-0.1z"/></svg>